<?xml version="1.0" encoding="utf-8"?>
<!-- Generator: Adobe Illustrator 15.0.0, SVG Export Plug-In . SVG Version: 6.00 Build 0)  -->
<!DOCTYPE svg PUBLIC "-//W3C//DTD SVG 1.1//EN" "http://www.w3.org/Graphics/SVG/1.1/DTD/svg11.dtd">
<svg version="1.1" xmlns="http://www.w3.org/2000/svg" xmlns:xlink="http://www.w3.org/1999/xlink" x="0px" y="0px" width="800px"
	 height="800px" viewBox="0 0 800 800" enable-background="new 0 0 800 800" xml:space="preserve">
<g id="hlavia_1_" enable-background="new    ">
	<g id="hlavia">
		<g>
			<path fill-rule="evenodd" clip-rule="evenodd" fill="#BA0305" d="M420.127,250.396c-44.987,0-88.21,36.781-96.541,82.154
				c-8.328,45.371,21.387,82.151,66.375,82.151c44.983,0,88.207-36.78,96.539-82.151
				C494.827,287.177,465.113,250.396,420.127,250.396z"/>
		</g>
	</g>
</g>
<g id="telo_1_" enable-background="new    ">
	<g id="telo">
		<g>
			<path fill-rule="evenodd" clip-rule="evenodd" fill="#BA0305" d="M232.092,530.909h261.441
				c-0.428-67.352-48.919-119.181-115.546-119.181C311.361,411.729,249.673,463.558,232.092,530.909z"/>
		</g>
	</g>
</g>
<g id="film._pas_1_" enable-background="new    ">
	<g id="film._pas">
		<g>
			<path fill-rule="evenodd" clip-rule="evenodd" fill="#BA0305" d="M608.058,130.169l-9.57,41.025
				c-0.828,3.536-4.363,6.402-7.898,6.402h-295.93c-3.535,0-5.733-2.866-4.908-6.402l9.571-41.025h-85.807L107.296,585.475h0.156
				l-1.929,8.267H190.7l8.731-37.438c0.825-3.536,4.36-6.399,7.896-6.399H503.26c3.535,0,5.733,2.863,4.905,6.399l-6.801,29.171
				h0.095l-1.887,8.092h0.109l-0.023,0.113h87.111l1.915-8.205h0.16l106.22-455.306H608.058z M221.171,179.999l5.371-23.022
				c0.825-3.535,4.36-6.402,7.896-6.402h31.364c3.535,0,5.733,2.867,4.909,6.402l-5.372,23.022c-0.825,3.536-4.36,6.402-7.896,6.402
				h-31.364C222.544,186.401,220.346,183.535,221.171,179.999z M203.234,256.881l1.567-6.714c0.026-0.322,0.052-0.643,0.13-0.976
				l3.58-15.351c0.825-3.536,4.36-6.402,7.897-6.402h31.213c1.848,0,3.315,0.797,4.192,2.052c1.004,1.169,1.43,2.835,0.992,4.705
				l-5.291,22.687c-0.825,3.535-4.36,6.401-7.898,6.401h-31.473C204.607,263.282,202.409,260.416,203.234,256.881z M185.038,335.164
				l5.374-23.034c0.825-3.535,4.36-6.401,7.896-6.401h31.116c3.536,0,5.733,2.866,4.908,6.401l-5.374,23.034
				c-0.825,3.538-4.36,6.404-7.896,6.404h-31.116C186.411,341.568,184.213,338.701,185.038,335.164z M179.888,546.27l-5.36,22.97
				c-0.825,3.54-4.36,6.404-7.895,6.404h-31.336c-3.536,0-5.733-2.864-4.908-6.404l5.359-22.97c0.825-3.54,4.36-6.404,7.896-6.404
				h31.336C178.515,539.865,180.713,542.729,179.888,546.27z M198.205,468.809l-5.388,23.094c-0.825,3.54-4.36,6.403-7.896,6.403
				H153.34c-3.536,0-5.733-2.863-4.908-6.403l5.388-23.094c0.824-3.539,4.36-6.404,7.895-6.404h31.582
				C196.833,462.404,199.03,465.27,198.205,468.809z M202.92,420.108h-31.336c-3.538,0-5.735-2.869-4.911-6.404l5.36-22.975
				c0.825-3.536,4.362-6.4,7.898-6.4h31.335c3.536,0,5.733,2.864,4.908,6.4l-5.359,22.975
				C209.991,417.239,206.455,420.108,202.92,420.108z M510.703,520.023H214.298c-3.535,0-5.733-2.863-4.908-6.403l69.596-298.32
				c0.824-3.535,4.36-6.401,7.896-6.401h296.405c3.535,0,5.732,2.866,4.91,6.401l-69.597,298.32
				C517.774,517.16,514.239,520.023,510.703,520.023z M576.051,546.27l-5.389,23.098c-0.827,3.535-4.362,6.399-7.897,6.399h-31.213
				c-3.535,0-5.733-2.864-4.911-6.399l5.389-23.098c0.827-3.54,4.362-6.404,7.897-6.404h31.213
				C574.675,539.865,576.873,542.729,576.051,546.27z M594.365,468.809l-5.389,23.094c-0.827,3.54-4.362,6.403-7.896,6.403h-31.459
				c-3.536,0-5.733-2.863-4.906-6.403l5.388-23.094c0.822-3.539,4.358-6.404,7.894-6.404h31.463
				C592.994,462.404,595.192,465.27,594.365,468.809z M612.581,390.729l-5.332,22.852c-0.827,3.535-4.362,6.404-7.897,6.404h-31.459
				c-3.535,0-5.733-2.869-4.905-6.404l5.326-22.852c0.827-3.536,4.362-6.4,7.897-6.4h31.459
				C611.205,384.33,613.402,387.194,612.581,390.729z M630.966,311.917l-5.388,23.098c-0.827,3.536-4.357,6.402-7.897,6.402h-31.459
				c-3.536,0-5.733-2.866-4.906-6.402l5.389-23.098c0.821-3.535,4.357-6.402,7.893-6.402h31.459
				C629.591,305.515,631.793,308.382,630.966,311.917z M649.21,233.719l-5.389,23.096c-0.826,3.538-4.361,6.401-7.897,6.401h-31.459
				c-3.535,0-5.732-2.864-4.905-6.401l5.388-23.096c0.822-3.538,4.357-6.404,7.894-6.404H644.3
				C647.835,227.315,650.037,230.181,649.21,233.719z M661.749,179.968c-0.827,3.536-4.362,6.402-7.898,6.402h-31.458
				c-3.535,0-5.733-2.867-4.906-6.402l5.388-23.098c0.823-3.535,4.358-6.402,7.894-6.402h31.463c3.535,0,5.729,2.867,4.907,6.402
				L661.749,179.968z"/>
		</g>
	</g>
</g>
<g id="_x28_R_x29__1_" enable-background="new    ">
	<g id="_x28_R_x29_">
		<g>
			<path fill-rule="evenodd" clip-rule="evenodd" fill="#BA0305" d="M667.085,536.136h-0.171c-16.007,0-28.778,12.539-28.778,28.562
				s12.771,28.736,28.778,28.736c16.009,0,28.609-12.714,28.609-28.736S682.923,536.136,667.085,536.136z M667.085,587.512
				c-12.431,0-21.798-10.101-21.798-22.814c0-12.539,9.367-22.818,21.458-22.818h0.169c12.261,0,21.459,10.279,21.459,22.993
				C688.373,577.411,679.175,587.687,667.085,587.512z M673.386,565.566v-0.35c3.237-1.044,5.789-3.308,5.789-6.787
				c0-2.788-1.19-4.882-2.893-6.097c-1.876-1.395-4.258-2.264-9.537-2.264c-4.599,0-8.178,0.521-10.729,0.869V579.5h6.471v-11.319
				h3.067c3.573,0,5.279,1.395,5.79,4.354c0.85,3.482,1.361,5.922,2.211,6.966h6.816c-0.516-1.044-1.196-2.613-2.047-6.966
				C677.474,568.7,676.112,566.437,673.386,565.566z M665.724,563.478h-3.067v-8.186c0.681-0.175,1.877-0.35,3.578-0.35
				c4.088,0,5.959,1.743,5.959,4.353C672.193,562.259,669.297,563.478,665.724,563.478z"/>
		</g>
	</g>
</g>
</svg>
